<svg width="200" height="200" viewBox="0 0 200 200" fill="none" xmlns="http://www.w3.org/2000/svg">
<g clip-path="url(#clip0_1_3)">
<rect width="200" height="200" fill="#D9D9D9"/>
<path d="M37.0254 187.408L49.9851 121.857L0.632904 76.7992L66.9758 68.8878L94.5527 8.00753L122.582 68.6617L189 76.0834L139.987 121.518L153.436 186.956L95.1178 154.369L37.0254 187.408Z" fill="#FFD759"/>
<path d="M94.1835 97.7004L0 76.7917L49.3522 121.849L94.1835 97.7004Z" fill="#FABD3B"/>
<path d="M94.1835 97.7004L36.3925 187.401L94.4849 154.361L152.803 186.949L94.1835 97.7004Z" fill="#FABD3B"/>
<path d="M94.1835 97.7004L188.367 76.0759L139.354 121.51L94.1835 97.7004Z" fill="#FABD3B"/>
<path d="M93.9198 8L94.1835 97.7004L121.949 68.6542L93.9198 8Z" fill="#FABD3B"/>
<path d="M80.264 10.4H152.328C160.349 10.4 167.816 12.4053 174.728 16.416C181.64 20.4267 187.101 25.888 191.112 32.8C195.123 39.6267 197.128 47.0933 197.128 55.2C197.128 63.3067 195.123 70.816 191.112 77.728C187.101 84.5547 181.64 89.9733 174.728 93.984C167.816 97.9947 160.349 100 152.328 100H80.008C79.4107 100 79.112 99.7013 79.112 99.104V11.552C79.112 10.784 79.496 10.4 80.264 10.4ZM96.264 27.552V82.848H152.328C159.923 82.848 166.408 80.16 171.784 74.784C177.245 69.3227 179.976 62.7947 179.976 55.2C179.976 47.6053 177.245 41.12 171.784 35.744C166.408 30.2827 159.923 27.552 152.328 27.552H96.264Z" fill="#0095D6"/>
<path d="M79.24 98.552C79.24 97.784 79.624 97.4 80.392 97.4H170.76C175.965 97.4 180.701 98.7653 184.968 101.496C189.235 104.141 192.52 107.811 194.824 112.504C196.957 117.112 197.768 121.933 197.256 126.968C196.744 131.917 194.952 136.397 191.88 140.408L190.472 142.2L191.88 143.992C194.952 148.003 196.744 152.525 197.256 157.56C197.768 162.509 196.957 167.288 194.824 171.896C193.288 175.053 191.283 177.784 188.808 180.088C186.419 182.307 183.688 184.013 180.616 185.208C177.544 186.403 174.259 187 170.76 187H80.392C79.624 187 79.24 186.616 79.24 185.848V98.552ZM170.76 114.552H96.392V133.624H170.76C173.491 133.624 175.752 132.728 177.544 130.936C179.336 129.059 180.232 126.755 180.232 124.024C180.232 122.317 179.848 120.739 179.08 119.288C177.373 116.131 174.6 114.552 170.76 114.552ZM96.392 169.848H99.336H170.76C173.491 169.848 175.752 168.952 177.544 167.16C179.336 165.368 180.232 163.107 180.232 160.376C180.232 158.669 179.848 157.048 179.08 155.512C177.373 152.355 174.6 150.776 170.76 150.776H96.392V169.848Z" fill="#FF53BA"/>
</g>
<defs>
<clipPath id="clip0_1_3">
<rect width="200" height="200" rx="20" fill="white"/>
</clipPath>
</defs>
</svg>
