<svg width="500" height="362" viewBox="0 0 500 362" fill="none" xmlns="http://www.w3.org/2000/svg">
<rect width="180" height="50" rx="10" fill="#FFB6C1"/>
<path d="M0 10C0 4.47715 4.47715 0 10 0H170C175.523 0 180 4.47715 180 10V40C180 45.5228 175.523 50 170 50H0V10Z" fill="url(#paint0_linear_1_9)"/>
<rect y="41" width="500" height="321" rx="10" fill="#FFB6C1"/>
<path d="M87.0455 248V154.909H125.864C132.833 154.909 138.667 155.894 143.364 157.864C148.091 159.833 151.636 162.591 154 166.136C156.394 169.682 157.591 173.788 157.591 178.455C157.591 182 156.848 185.167 155.364 187.955C153.879 190.712 151.833 193 149.227 194.818C146.621 196.636 143.606 197.909 140.182 198.636V199.545C143.939 199.727 147.409 200.742 150.591 202.591C153.803 204.439 156.379 207.015 158.318 210.318C160.258 213.591 161.227 217.47 161.227 221.955C161.227 226.955 159.955 231.424 157.409 235.364C154.864 239.273 151.182 242.364 146.364 244.636C141.545 246.879 135.697 248 128.818 248H87.0455ZM109.545 229.864H123.455C128.333 229.864 131.924 228.939 134.227 227.091C136.561 225.242 137.727 222.667 137.727 219.364C137.727 216.97 137.167 214.909 136.045 213.182C134.924 211.424 133.333 210.076 131.273 209.136C129.212 208.167 126.742 207.682 123.864 207.682H109.545V229.864ZM109.545 193.182H122C124.455 193.182 126.636 192.773 128.545 191.955C130.455 191.136 131.939 189.955 133 188.409C134.091 186.864 134.636 185 134.636 182.818C134.636 179.697 133.53 177.242 131.318 175.455C129.106 173.667 126.121 172.773 122.364 172.773H109.545V193.182ZM184.545 249.318C181.273 249.318 178.47 248.167 176.136 245.864C173.833 243.561 172.697 240.773 172.727 237.5C172.697 234.288 173.833 231.545 176.136 229.273C178.47 226.97 181.273 225.818 184.545 225.818C187.636 225.818 190.364 226.97 192.727 229.273C195.121 231.545 196.333 234.288 196.364 237.5C196.333 239.682 195.758 241.667 194.636 243.455C193.545 245.242 192.106 246.667 190.318 247.727C188.561 248.788 186.636 249.318 184.545 249.318ZM203.625 173.182V154.909H282.307V173.182H254.08V248H231.898V173.182H203.625ZM301.42 249.318C298.148 249.318 295.345 248.167 293.011 245.864C290.708 243.561 289.572 240.773 289.602 237.5C289.572 234.288 290.708 231.545 293.011 229.273C295.345 226.97 298.148 225.818 301.42 225.818C304.511 225.818 307.239 226.97 309.602 229.273C311.996 231.545 313.208 234.288 313.239 237.5C313.208 239.682 312.633 241.667 311.511 243.455C310.42 245.242 308.981 246.667 307.193 247.727C305.436 248.788 303.511 249.318 301.42 249.318ZM349.057 154.909L369.875 223.091H370.648L391.466 154.909H416.648L385.239 248H355.284L323.875 154.909H349.057Z" fill="white"/>
<defs>
<linearGradient id="paint0_linear_1_9" x1="90" y1="25" x2="90" y2="50" gradientUnits="userSpaceOnUse">
<stop stop-opacity="0"/>
<stop offset="1"/>
</linearGradient>
</defs>
</svg>
