<svg width="100" height="100" viewBox="0 0 100 100" fill="none" xmlns="http://www.w3.org/2000/svg">
<g clip-path="url(#clip0_1_2)">
<rect width="100" height="100" rx="5" fill="white"/>
<path d="M4.39062 36.4727H11.1484L19.4297 56.1797L21.3438 60.9453L22.8477 56.1797L25.8945 48.9922L20.4062 36.4727H26.7734L29.0195 42.4297L31.1094 36.4727H37.4766L31.9883 48.9922L35.0938 56.3359L36.9688 60.9453L38.4141 56.2578L46.7344 36.4727H53.4922L40.0156 67H33.8828L31.168 60.9453L28.9609 55.0664L26.7539 60.9453L24 67H17.8672L4.39062 36.4727Z" fill="#33A9FF"/>
<path d="M58.2383 36.4727H64.4297L75.5234 47.6055L86.6172 36.4727H92.8086V67H86.6172V45.0469L75.5234 55.7305L64.4297 45.0469V67H58.2383V36.4727Z" fill="#FF7DDB"/>
</g>
<defs>
<clipPath id="clip0_1_2">
<rect width="100" height="100" rx="5" fill="white"/>
</clipPath>
</defs>
</svg>
